<!-- Generated by IcoMoon.io -->
<svg version="1.1" xmlns="http://www.w3.org/2000/svg" width="32" height="32" viewBox="0 0 32 32">
<title>fb</title>
<path d="M19.269 31.781c-0.156 0.006-0.256 0.019-0.356 0.019-2.137 0-4.269-0.006-6.406 0.006-0.3 0-0.381-0.081-0.381-0.381 0.006-4.975 0.006-9.956 0.006-14.931 0-0.131 0-0.262 0-0.431-1.162 0-2.294 0-3.444 0 0-1.775 0-3.519 0-5.313 0.119 0 0.231 0 0.338 0 0.938 0 1.875-0.006 2.813 0.006 0.238 0 0.3-0.069 0.3-0.3-0.012-1.394-0.012-2.794 0-4.188 0.006-0.975 0.162-1.925 0.613-2.806 0.644-1.244 1.662-2.050 2.95-2.55 1.050-0.412 2.156-0.563 3.269-0.581 1.813-0.025 3.625-0.013 5.438-0.019 0.169 0 0.306-0.006 0.306 0.231-0.006 1.719-0.006 3.438-0.006 5.156 0 0.019-0.006 0.037-0.031 0.119-0.106 0-0.225 0-0.344 0-1.125 0-2.25-0.006-3.375 0-0.65 0-1.175 0.263-1.506 0.831-0.1 0.169-0.163 0.388-0.163 0.588-0.019 1.063 0 2.125-0.012 3.188 0 0.25 0.075 0.319 0.319 0.319 1.563-0.012 3.125-0.006 4.688-0.006 0.125 0 0.244 0 0.456 0-0.219 1.787-0.431 3.537-0.65 5.306-1.625 0-3.206 0-4.819 0 0 5.256 0 10.481 0 15.738z"></path>
</svg>
