<!-- Generated by IcoMoon.io -->
<svg version="1.1" xmlns="http://www.w3.org/2000/svg" width="32" height="32" viewBox="0 0 32 32">
<title>inst</title>
<path d="M30.792 1.209c-0.806-0.806-1.771-1.209-2.896-1.209h-23.792c-1.125 0-2.090 0.403-2.896 1.209s-1.208 1.771-1.208 2.896v23.792c0 1.125 0.403 2.090 1.208 2.896s1.771 1.209 2.896 1.209h23.792c1.124 0 2.090-0.403 2.896-1.209s1.208-1.771 1.208-2.896v-23.792c-0-1.125-0.402-2.090-1.208-2.896zM11.49 11.531c1.257-1.215 2.767-1.823 4.531-1.823 1.778 0 3.295 0.608 4.552 1.823s1.885 2.684 1.885 4.406c0 1.722-0.628 3.191-1.885 4.406s-2.774 1.823-4.552 1.823c-1.764 0-3.274-0.608-4.531-1.823s-1.886-2.684-1.886-4.406c0-1.722 0.629-3.191 1.886-4.406zM28.375 27.042c0 0.361-0.125 0.663-0.375 0.906s-0.549 0.365-0.896 0.365h-22.27c-0.361 0-0.663-0.122-0.906-0.365s-0.365-0.545-0.365-0.906v-13.5h2.937c-0.278 0.875-0.417 1.785-0.417 2.729 0 2.667 0.972 4.941 2.917 6.823s4.285 2.823 7.021 2.823c1.806 0 3.472-0.431 5-1.292s2.735-2.031 3.625-3.511c0.889-1.479 1.333-3.094 1.333-4.844 0-0.944-0.139-1.854-0.417-2.729h2.813v13.5h-0zM28.375 8.437c0 0.403-0.139 0.743-0.417 1.021s-0.618 0.417-1.021 0.417h-3.625c-0.403 0-0.743-0.139-1.021-0.417s-0.416-0.618-0.416-1.021v-3.437c0-0.389 0.139-0.726 0.416-1.010s0.618-0.427 1.021-0.427h3.625c0.403 0 0.743 0.142 1.021 0.427s0.417 0.622 0.417 1.010v3.437z"></path>
</svg>
