<!-- Generated by IcoMoon.io -->
<svg version="1.1" xmlns="http://www.w3.org/2000/svg" width="21" height="32" viewBox="0 0 21 32">
<title>loc</title>
<path d="M21.333 11.504c0-1.401-0.276-2.788-0.812-4.082s-1.322-2.47-2.312-3.461c-0.99-0.99-2.166-1.776-3.46-2.312s-2.681-0.812-4.082-0.812-2.788 0.276-4.082 0.812c-1.294 0.536-2.47 1.322-3.461 2.312s-1.776 2.166-2.312 3.461c-0.536 1.294-0.812 2.681-0.812 4.082 0 2.114 0.625 4.079 1.684 5.737h-0.012c3.596 5.63 8.995 14.072 8.995 14.072l8.995-14.072h-0.011c1.098-1.712 1.682-3.703 1.682-5.737zM10.667 16.075c-1.212 0-2.375-0.482-3.232-1.339s-1.339-2.020-1.339-3.232 0.482-2.375 1.339-3.232c0.857-0.857 2.020-1.339 3.232-1.339s2.375 0.482 3.232 1.339c0.857 0.857 1.339 2.020 1.339 3.232s-0.482 2.375-1.339 3.232c-0.857 0.857-2.020 1.339-3.232 1.339z"></path>
</svg>
