<!-- Generated by IcoMoon.io -->
<svg version="1.1" xmlns="http://www.w3.org/2000/svg" width="36" height="32" viewBox="0 0 36 32">
<title>right</title>
<path d="M2.222 13.778h26.356l-8.067-9.689c-0.377-0.454-0.559-1.039-0.505-1.627s0.34-1.13 0.793-1.507c0.454-0.377 1.039-0.559 1.627-0.504s1.13 0.34 1.507 0.793l11.111 13.333c0.075 0.106 0.142 0.217 0.2 0.333 0 0.111 0 0.178 0.156 0.289 0.101 0.255 0.153 0.526 0.156 0.8-0.002 0.274-0.055 0.545-0.156 0.8 0 0.111 0 0.178-0.156 0.289-0.058 0.116-0.125 0.227-0.2 0.333l-11.111 13.333c-0.209 0.251-0.471 0.453-0.766 0.591s-0.618 0.21-0.945 0.209c-0.519 0.001-1.022-0.18-1.422-0.511-0.225-0.187-0.411-0.416-0.547-0.674s-0.22-0.541-0.247-0.833c-0.027-0.291 0.004-0.585 0.091-0.864s0.228-0.538 0.415-0.763l8.067-9.689h-26.356c-0.589 0-1.155-0.234-1.571-0.651s-0.651-0.982-0.651-1.571 0.234-1.155 0.651-1.571c0.417-0.417 0.982-0.651 1.571-0.651z"></path>
</svg>
