<!-- Generated by IcoMoon.io -->
<svg version="1.1" xmlns="http://www.w3.org/2000/svg" width="32" height="32" viewBox="0 0 32 32">
<title>Tw</title>
<path d="M32 5.824c-1.176 0.535-2.442 0.897-3.77 1.059 1.356-0.832 2.397-2.152 2.887-3.723-1.27 0.771-2.673 1.331-4.172 1.631-1.195-1.308-2.902-2.124-4.791-2.124-3.623 0-6.563 3.014-6.563 6.732 0 0.528 0.056 1.040 0.169 1.533-5.456-0.281-10.293-2.959-13.533-7.036-0.565 0.998-0.889 2.155-0.889 3.388 0 2.334 1.159 4.395 2.921 5.603-1.074-0.033-2.089-0.339-2.975-0.84v0.083c0 3.263 2.263 5.984 5.269 6.601-0.55 0.158-1.131 0.237-1.73 0.237-0.423 0-0.836-0.041-1.236-0.119 0.836 2.674 3.259 4.621 6.133 4.673-2.247 1.807-5.079 2.883-8.153 2.883-0.53 0-1.054-0.031-1.567-0.093 2.906 1.907 6.358 3.022 10.064 3.022 12.077 0 18.679-10.257 18.679-19.153 0-0.293-0.006-0.585-0.017-0.873 1.284-0.95 2.397-2.134 3.274-3.484z"></path>
</svg>
