<svg xmlns="http://www.w3.org/2000/svg" fill="none" viewBox="0 0 147 167"><path fill="url(#paint0_linear)" fill-rule="evenodd" d="M52.477 40.687c.657-1.425 1.426-2.533 1.934-3.117a12.257 12.257 0 0 1-.53 3.687 12.26 12.26 0 0 1 3.066 2.114c-.774-.024-2.11-.211-3.602-.697-.688 1.517-1.558 2.564-2.128 3.052.039-1.277.308-2.5.685-3.604-1.067-.473-2.147-1.107-3.111-1.946.745-.087 2.105-.014 3.686.511z" clip-rule="evenodd"/><path fill="url(#paint1_linear)" fill-rule="evenodd" d="M47.285 26.405c.438-.95.95-1.687 1.288-2.075a8.16 8.16 0 0 1-.353 2.454 8.16 8.16 0 0 1 2.04 1.407c-.514-.016-1.403-.14-2.396-.464-.458 1.01-1.037 1.707-1.417 2.032.026-.85.205-1.665.456-2.4a8.221 8.221 0 0 1-2.07-1.294c.495-.059 1.4-.01 2.453.34z" clip-rule="evenodd"/><path fill="url(#paint2_linear)" fill-rule="evenodd" d="M33.235 12.207c.657-1.426 1.426-2.533 1.934-3.117a12.257 12.257 0 0 1-.53 3.687 12.26 12.26 0 0 1 3.066 2.113c-.774-.023-2.11-.21-3.602-.697-.688 1.518-1.558 2.565-2.128 3.053.039-1.277.307-2.5.685-3.605-1.067-.472-2.147-1.106-3.111-1.945.745-.087 2.105-.014 3.686.511z" clip-rule="evenodd"/><path fill="url(#paint3_linear)" fill-rule="evenodd" d="M31.009 44.172c.966-2.097 2.097-3.727 2.845-4.586a18.033 18.033 0 0 1-.78 5.424 18.033 18.033 0 0 1 4.511 3.11c-1.139-.035-3.103-.31-5.3-1.026-1.011 2.233-2.29 3.774-3.13 4.491.057-1.878.452-3.678 1.008-5.303-1.57-.695-3.16-1.627-4.577-2.861 1.096-.129 3.097-.021 5.423.751z" clip-rule="evenodd"/><circle cx="36.822" cy="29.816" r=".847" fill="#2F235A" transform="rotate(21.387 36.822 29.816)"/><circle cx="57.782" cy="19.172" r=".847" fill="#FE9076" transform="rotate(21.387 57.782 19.172)"/><circle cx="17.547" cy="23.796" r=".847" fill="#FFA400" transform="rotate(21.387 17.547 23.796)"/><circle cx="35.725" cy="57.882" r=".847" fill="#23BB86" transform="rotate(21.387 35.725 57.882)"/><path stroke="#FE9076" stroke-linecap="round" stroke-width=".737" d="M57.139 15.126c-.824-3.145-3.797-10.34-9.099-13.95"/><path stroke="#FFA400" stroke-linecap="round" stroke-width=".737" d="M15.048 20.381C12.998 17.857 7.32 12.533 1 11.434"/><path stroke="#23BB86" stroke-linecap="round" stroke-width=".737" d="M32.123 59.112c-1.817.662-6.388 2.773-10.147 5.916"/><path fill="url(#paint4_linear)" fill-rule="evenodd" d="M94.427 40.687c-.656-1.425-1.426-2.533-1.934-3.117a12.26 12.26 0 0 0 .531 3.687 12.258 12.258 0 0 0-3.067 2.114c.774-.024 2.11-.211 3.602-.697.688 1.517 1.558 2.564 2.128 3.052-.038-1.277-.307-2.5-.685-3.604 1.067-.473 2.148-1.107 3.111-1.946-.745-.087-2.105-.014-3.686.511z" clip-rule="evenodd"/><path fill="url(#paint5_linear)" fill-rule="evenodd" d="M99.619 26.405c-.437-.95-.95-1.687-1.288-2.075-.006.917.135 1.739.354 2.454a8.16 8.16 0 0 0-2.042 1.407c.516-.016 1.404-.14 2.398-.464.458 1.01 1.037 1.707 1.416 2.032a8.205 8.205 0 0 0-.455-2.4 8.213 8.213 0 0 0 2.07-1.294c-.496-.059-1.401-.01-2.453.34z" clip-rule="evenodd"/><path fill="url(#paint6_linear)" fill-rule="evenodd" d="M113.669 12.207c-.656-1.426-1.426-2.533-1.934-3.117-.01 1.377.202 2.613.531 3.687a12.28 12.28 0 0 0-3.067 2.113c.774-.023 2.11-.21 3.602-.697.688 1.518 1.558 2.565 2.128 3.053-.038-1.277-.307-2.5-.685-3.605 1.067-.472 2.148-1.106 3.111-1.945-.745-.087-2.105-.014-3.686.511z" clip-rule="evenodd"/><path fill="url(#paint7_linear)" fill-rule="evenodd" d="M115.896 44.172c-.966-2.097-2.098-3.727-2.846-4.586a18.043 18.043 0 0 0 .781 5.424 18.042 18.042 0 0 0-4.512 3.11c1.139-.035 3.104-.31 5.299-1.026 1.013 2.233 2.292 3.774 3.131 4.491-.057-1.878-.452-3.678-1.007-5.303 1.569-.695 3.159-1.627 4.577-2.861-1.097-.129-3.097-.021-5.423.751z" clip-rule="evenodd"/><circle r=".847" fill="#2F235A" transform="scale(-1 1) rotate(21.387 -133.99 -276.579)"/><circle r=".847" fill="#FE9076" transform="scale(-1 1) rotate(21.387 -95.327 -226.4)"/><circle r=".847" fill="#FFA400" transform="scale(-1 1) rotate(21.387 -127.689 -330.626)"/><circle r=".847" fill="#23BB86" transform="scale(-1 1) rotate(21.387 -208.854 -265.45)"/><path stroke="#FE9076" stroke-linecap="round" stroke-width=".737" d="M89.766 15.126c.823-3.145 3.796-10.34 9.098-13.95"/><path stroke="#FFA400" stroke-linecap="round" stroke-width=".737" d="M131.856 20.381c2.049-2.524 7.728-7.848 14.048-8.947"/><path stroke="#23BB86" stroke-linecap="round" stroke-width=".737" d="M114.782 59.112c1.816.662 6.388 2.773 10.146 5.916"/><path fill="url(#paint8_linear)" d="M27.987 104.439h89.85v62.11h-89.85z"/><mask id="a" width="91" height="63" x="27" y="104" maskUnits="userSpaceOnUse"><path fill="#C4C4C4" d="M27.987 104.439h89.85v62.11h-89.85z"/></mask><g mask="url(#a)"><path fill="#000" fill-opacity=".07" d="M32.239 102.858H93.42l-13.829 24.011H18.41l13.829-24.011z"/><path fill="url(#paint9_linear)" d="M89.089 104.439h89.85v62.11h-89.85z"/></g><path fill="url(#paint10_linear)" d="M27.908 104.439H89.09L77.27 124.162H16.09l11.819-19.723z"/><mask id="b" width="29" height="63" x="89" y="104" maskUnits="userSpaceOnUse"><path fill="#C4C4C4" d="M89.09 104.439h28.748v62.11H89.09z"/></mask><g mask="url(#b)"><path fill="#000" fill-opacity=".07" d="M114.338 104.336H85.545l13.53 22.707h28.792l-13.529-22.707z"/></g><path fill="url(#paint11_linear)" d="M117.883 104.439H89.09l11.818 19.723h28.793l-11.818-19.723z"/><circle cx="59.838" cy="87.241" r="8.491" fill="url(#paint12_linear)"/><circle cx="86.239" cy="75.891" r="8.205" fill="url(#paint13_linear)"/><circle cx="68.329" cy="54.985" r="6.616" fill="url(#paint14_linear)"/><circle cx="90.74" cy="53.987" r="1.65" fill="#FFA800" fill-opacity=".23"/><circle cx="79.684" cy="91.49" r="1.65" fill="#FFA800" fill-opacity=".23"/><circle cx="52.59" cy="66.037" r="1.65" fill="#FFA800" fill-opacity=".23"/><path fill="url(#paint15_linear)" d="M118.05 104.733H27.916L14.074 19.385h120.598l-16.622 85.348z"/><defs><linearGradient id="paint0_linear" x1="54.161" x2="51.162" y1="38.474" y2="46.131" gradientUnits="userSpaceOnUse"><stop stop-color="#FFE89E"/><stop offset="1" stop-color="#FFBF1A"/></linearGradient><linearGradient id="paint1_linear" x1="48.407" x2="46.41" y1="24.931" y2="30.028" gradientUnits="userSpaceOnUse"><stop stop-color="#FFE89E"/><stop offset="1" stop-color="#FFBF1A"/></linearGradient><linearGradient id="paint2_linear" x1="34.919" x2="31.92" y1="9.993" y2="17.651" gradientUnits="userSpaceOnUse"><stop stop-color="#FFE89E"/><stop offset="1" stop-color="#FFBF1A"/></linearGradient><linearGradient id="paint3_linear" x1="33.487" x2="29.075" y1="40.915" y2="52.182" gradientUnits="userSpaceOnUse"><stop stop-color="#FFE89E"/><stop offset="1" stop-color="#FFBF1A"/></linearGradient><linearGradient id="paint4_linear" x1="92.743" x2="95.742" y1="38.474" y2="46.131" gradientUnits="userSpaceOnUse"><stop stop-color="#FFE89E"/><stop offset="1" stop-color="#FFBF1A"/></linearGradient><linearGradient id="paint5_linear" x1="98.498" x2="100.494" y1="24.931" y2="30.028" gradientUnits="userSpaceOnUse"><stop stop-color="#FFE89E"/><stop offset="1" stop-color="#FFBF1A"/></linearGradient><linearGradient id="paint6_linear" x1="111.985" x2="114.984" y1="9.993" y2="17.651" gradientUnits="userSpaceOnUse"><stop stop-color="#FFE89E"/><stop offset="1" stop-color="#FFBF1A"/></linearGradient><linearGradient id="paint7_linear" x1="113.418" x2="117.83" y1="40.915" y2="52.182" gradientUnits="userSpaceOnUse"><stop stop-color="#FFE89E"/><stop offset="1" stop-color="#FFBF1A"/></linearGradient><linearGradient id="paint8_linear" x1="58.002" x2="22.191" y1="92.94" y2="191.572" gradientUnits="userSpaceOnUse"><stop stop-color="#FFD481"/><stop offset="1" stop-color="#FA620C"/></linearGradient><linearGradient id="paint9_linear" x1="43.317" x2="151.997" y1="100.5" y2="216.639" gradientUnits="userSpaceOnUse"><stop stop-color="#FFD481"/><stop offset=".833" stop-color="#FA620C"/></linearGradient><linearGradient id="paint10_linear" x1="29.167" x2="26.259" y1="97.39" y2="139.413" gradientUnits="userSpaceOnUse"><stop stop-color="#FFD481"/><stop offset="1" stop-color="#FA620C"/></linearGradient><linearGradient id="paint11_linear" x1="122.426" x2="127.598" y1="97.39" y2="138.971" gradientUnits="userSpaceOnUse"><stop stop-color="#FFD481"/><stop offset="1" stop-color="#FA620C"/></linearGradient><linearGradient id="paint12_linear" x1="60.481" x2="58.866" y1="75.948" y2="98.867" gradientUnits="userSpaceOnUse"><stop stop-color="#FF9F81"/><stop offset="1" stop-color="#F53838"/></linearGradient><linearGradient id="paint13_linear" x1="86.86" x2="85.299" y1="64.979" y2="87.125" gradientUnits="userSpaceOnUse"><stop stop-color="#FF9F81"/><stop offset="1" stop-color="#F53838"/></linearGradient><linearGradient id="paint14_linear" x1="68.83" x2="67.572" y1="46.185" y2="64.044" gradientUnits="userSpaceOnUse"><stop stop-color="#FF9F81"/><stop offset="1" stop-color="#F53838"/></linearGradient><linearGradient id="paint15_linear" x1="73.382" x2="73.382" y1="19.385" y2="200.709" gradientUnits="userSpaceOnUse"><stop stop-color="#fff" stop-opacity="0"/><stop offset="1" stop-color="#FE9277"/></linearGradient></defs></svg>