<!-- Generated by IcoMoon.io -->
<svg version="1.1" xmlns="http://www.w3.org/2000/svg" width="32" height="32" viewBox="0 0 32 32">
<title>inst</title>
<path d="M21 16c0 1.326-0.527 2.598-1.464 3.536s-2.209 1.464-3.536 1.464c-1.326 0-2.598-0.527-3.536-1.464s-1.464-2.209-1.464-3.536c0-0.285 0.030-0.563 0.082-0.833h-1.748v6.662c0 0.463 0.375 0.838 0.838 0.838h11.658c0.222-0 0.435-0.089 0.592-0.246s0.245-0.37 0.245-0.592v-6.662h-1.748c0.052 0.27 0.082 0.548 0.082 0.833zM16 19.333c0.438-0 0.871-0.087 1.276-0.254s0.772-0.413 1.081-0.723c0.31-0.31 0.555-0.677 0.722-1.082s0.254-0.838 0.254-1.276c-0-0.438-0.087-0.871-0.254-1.276s-0.413-0.772-0.723-1.082c-0.31-0.309-0.677-0.555-1.082-0.722s-0.838-0.254-1.276-0.253c-0.884 0-1.732 0.352-2.357 0.977s-0.976 1.474-0.976 2.358c0 0.884 0.352 1.732 0.977 2.357s1.474 0.976 2.358 0.976zM20 12.5h1.998c0.133 0 0.26-0.053 0.354-0.146s0.147-0.221 0.147-0.354v-1.998c0-0.133-0.053-0.261-0.147-0.355s-0.222-0.147-0.355-0.147h-1.998c-0.133 0-0.261 0.053-0.355 0.147s-0.147 0.222-0.147 0.355v1.998c0.002 0.275 0.227 0.5 0.502 0.5zM16 0c-4.243 0-8.313 1.686-11.314 4.686s-4.686 7.070-4.686 11.314c0 4.243 1.686 8.313 4.686 11.314s7.070 4.686 11.314 4.686c2.101 0 4.182-0.414 6.123-1.218s3.705-1.983 5.191-3.468 2.664-3.25 3.468-5.191c0.804-1.941 1.218-4.022 1.218-6.123s-0.414-4.182-1.218-6.123c-0.804-1.941-1.983-3.705-3.468-5.191s-3.25-2.664-5.191-3.468c-1.941-0.804-4.022-1.218-6.123-1.218zM24.333 22.482c0 1.018-0.833 1.852-1.852 1.852h-12.963c-1.018 0-1.852-0.833-1.852-1.852v-12.963c0-1.018 0.833-1.852 1.852-1.852h12.963c1.018 0 1.852 0.833 1.852 1.852v12.963z"></path>
</svg>
