<svg width="148" height="37" fill="none" xmlns="http://www.w3.org/2000/svg"><path d="M47.04 25.116a.463.463 0 01-.34-.14.463.463 0 01-.14-.34v-13.04c0-.146.047-.26.14-.34a.463.463 0 01.34-.14h1.86c.147 0 .26.047.34.14.093.08.14.194.14.34v11.14h6.34c.147 0 .267.047.36.14.093.093.14.213.14.36v1.4a.487.487 0 01-.14.36.534.534 0 01-.36.12h-8.68zm13.902.2c-.68 0-1.307-.133-1.88-.4a3.575 3.575 0 01-1.34-1.12c-.32-.466-.48-.98-.48-1.54 0-.907.366-1.64 1.1-2.2.733-.56 1.74-.94 3.02-1.14l2.74-.4v-.42c0-.587-.147-1.026-.44-1.32-.294-.293-.767-.44-1.42-.44-.44 0-.8.087-1.08.26-.267.16-.48.32-.64.48-.16.174-.267.287-.32.34-.054.16-.154.24-.3.24h-1.54a.478.478 0 01-.32-.12.433.433 0 01-.12-.32c.013-.333.173-.713.48-1.14.32-.427.806-.793 1.46-1.1.653-.307 1.453-.46 2.4-.46 1.573 0 2.72.354 3.44 1.06.72.707 1.08 1.633 1.08 2.78v6.28a.463.463 0 01-.14.34.424.424 0 01-.34.14h-1.62a.463.463 0 01-.34-.14.463.463 0 01-.14-.34v-.78c-.294.427-.714.78-1.26 1.06-.534.267-1.2.4-2 .4zm.68-1.9c.733 0 1.333-.24 1.8-.72.466-.48.7-1.18.7-2.1v-.42l-2 .32c-.774.12-1.36.314-1.76.58-.387.267-.58.593-.58.98 0 .427.18.76.54 1 .36.24.793.36 1.3.36zm11.665 1.9c-1 0-1.84-.146-2.52-.44-.68-.306-1.186-.66-1.52-1.06-.32-.413-.48-.767-.48-1.06a.4.4 0 01.14-.32c.094-.08.2-.12.32-.12h1.58c.12 0 .22.047.3.14.054.04.194.16.42.36.227.213.494.38.8.5.307.12.647.18 1.02.18.534 0 .974-.106 1.32-.32.347-.213.52-.506.52-.88 0-.28-.08-.506-.24-.68-.146-.173-.42-.326-.82-.46-.4-.146-.993-.3-1.78-.46-1.133-.24-1.973-.607-2.52-1.1-.533-.493-.8-1.146-.8-1.96 0-.533.16-1.033.48-1.5.32-.48.794-.866 1.42-1.16.64-.307 1.4-.46 2.28-.46.894 0 1.667.147 2.32.44.654.28 1.147.62 1.48 1.02.347.387.52.733.52 1.04a.44.44 0 01-.14.32c-.08.08-.18.12-.3.12h-1.48a.565.565 0 01-.34-.14 5.124 5.124 0 01-.44-.38 2.226 2.226 0 00-.7-.44 2.522 2.522 0 00-.94-.16c-.493 0-.88.107-1.16.32-.266.213-.4.494-.4.84 0 .254.067.46.2.62.134.16.394.314.78.46.387.147.967.293 1.74.44 1.28.254 2.194.647 2.74 1.18.56.534.84 1.187.84 1.96 0 .934-.406 1.694-1.22 2.28-.813.587-1.953.88-3.42.88zm7.205-.2a.463.463 0 01-.34-.14.463.463 0 01-.14-.34v-13.24c0-.147.046-.26.14-.34a.463.463 0 01.34-.14h1.66c.147 0 .26.047.34.14.093.08.14.194.14.34v13.24a.463.463 0 01-.14.34.424.424 0 01-.34.14h-1.66zm9.273.2c-1.48 0-2.66-.426-3.54-1.28-.867-.867-1.327-2.08-1.38-3.64l-.02-.5.02-.5c.067-1.52.533-2.713 1.4-3.58.88-.867 2.053-1.3 3.52-1.3 1.573 0 2.787.48 3.64 1.44.867.96 1.3 2.24 1.3 3.84v.42a.463.463 0 01-.14.34.487.487 0 01-.36.14h-6.64v.16c.026.733.227 1.353.6 1.86.386.493.913.74 1.58.74.786 0 1.42-.306 1.9-.92.12-.146.213-.24.28-.28.08-.04.193-.06.34-.06h1.72c.12 0 .22.04.3.12.093.067.14.154.14.26 0 .32-.194.7-.58 1.14-.373.427-.913.8-1.62 1.12-.707.32-1.527.48-2.46.48zm2.22-6.3v-.06c0-.787-.2-1.42-.6-1.9-.387-.48-.927-.72-1.62-.72-.694 0-1.234.24-1.62.72-.387.48-.58 1.113-.58 1.9v.06h4.42zm8.783 6.3c-1 0-1.84-.146-2.52-.44-.68-.306-1.187-.66-1.52-1.06-.32-.413-.48-.767-.48-1.06a.4.4 0 01.14-.32c.093-.08.2-.12.32-.12h1.58c.12 0 .22.047.3.14.053.04.193.16.42.36.227.213.493.38.8.5.306.12.646.18 1.02.18.533 0 .973-.106 1.32-.32.346-.213.52-.506.52-.88 0-.28-.08-.506-.24-.68-.147-.173-.42-.326-.82-.46-.4-.146-.994-.3-1.78-.46-1.133-.24-1.974-.607-2.52-1.1-.534-.493-.8-1.146-.8-1.96 0-.533.16-1.033.48-1.5.32-.48.793-.866 1.42-1.16.64-.307 1.4-.46 2.28-.46.893 0 1.666.147 2.32.44.653.28 1.146.62 1.48 1.02.346.387.52.733.52 1.04 0 .12-.047.227-.14.32-.08.08-.18.12-.3.12h-1.48a.564.564 0 01-.34-.14 5.017 5.017 0 01-.44-.38 2.234 2.234 0 00-.7-.44 2.523 2.523 0 00-.94-.16c-.494 0-.88.107-1.16.32-.267.213-.4.494-.4.84 0 .254.066.46.2.62.133.16.393.314.78.46.386.147.966.293 1.74.44 1.28.254 2.193.647 2.74 1.18.56.534.84 1.187.84 1.96 0 .934-.407 1.694-1.22 2.28-.814.587-1.954.88-3.42.88zm10.784-.2c-.426 0-.7-.2-.82-.6l-4.08-12.8-.04-.18c0-.106.04-.2.12-.28.094-.093.2-.14.32-.14h2.48c.187 0 .34.053.46.16.134.107.22.227.26.36l2.84 9.24 2.82-9.24a.781.781 0 01.24-.36.747.747 0 01.48-.16h2.5c.107 0 .2.047.28.14.094.08.14.174.14.28l-.04.18-4.08 12.8c-.12.4-.393.6-.82.6h-3.06zm10.368 0a.53.53 0 01-.36-.14.53.53 0 01-.14-.36v-13c0-.146.046-.266.14-.36a.53.53 0 01.36-.14h5.6c1.706 0 3.046.393 4.02 1.18.986.787 1.48 1.934 1.48 3.44 0 1.494-.487 2.62-1.46 3.38-.974.747-2.32 1.12-4.04 1.12h-2.38v4.38a.459.459 0 01-.16.36.49.49 0 01-.36.14h-2.7zm5.5-7.64c.586 0 1.046-.146 1.38-.44.333-.306.5-.753.5-1.34 0-.546-.16-.98-.48-1.3-.307-.333-.774-.5-1.4-.5h-2.34v3.58h2.34zm8.015 7.64a.534.534 0 01-.36-.14.534.534 0 01-.14-.36v-13c0-.146.047-.266.14-.36a.534.534 0 01.36-.14h2.12c.333 0 .56.127.68.38l4.88 7.68v-7.56c0-.146.047-.266.14-.36a.534.534 0 01.36-.14h2.4c.147 0 .267.047.36.14.093.094.14.213.14.36v12.98a.56.56 0 01-.14.38.486.486 0 01-.36.14h-2.14a.716.716 0 01-.66-.38l-4.88-7.4v7.28a.534.534 0 01-.14.36.486.486 0 01-.36.14h-2.4z" fill="#0B132A"/><path d="M31.147 13.648l-.021-.022a.013.013 0 01-.005-.005L17.502 0 3.88 13.62l-.004.006-.023.021a13.245 13.245 0 0013.283 22c.238-.072.492-.072.73 0a13.243 13.243 0 0017.04-14.242 13.246 13.246 0 00-3.759-7.757zM8.723 22.63a.714.714 0 00-.209.505 13.219 13.219 0 001.965 6.802.258.258 0 01-.317.375 7.947 7.947 0 01-2.543-12.938L17.5 7.493l9.882 9.881a7.945 7.945 0 01-.007 11.231 7.922 7.922 0 01-2.536 1.707.26.26 0 01-.318-.375 13.22 13.22 0 001.966-6.802.713.713 0 00-.21-.505l-4.674-4.958a.26.26 0 00-.391.326c1.815 3.285.254 8.004-2.35 10.607l-.013.014a1.918 1.918 0 01-2.7 0l-.012-.014c-2.604-2.603-4.164-7.322-2.349-10.607a.258.258 0 00-.39-.326L8.722 22.63z" fill="#F53838"/></svg>