<!-- Generated by IcoMoon.io -->
<svg version="1.1" xmlns="http://www.w3.org/2000/svg" width="35" height="32" viewBox="0 0 35 32">
<title>serv</title>
<path d="M31.158 0.925h-26.947c-0.893 0-1.75 0.355-2.382 0.987s-0.987 1.488-0.987 2.382v6.737c0 0.893 0.355 1.75 0.987 2.382s1.488 0.987 2.382 0.987h26.947c0.893 0 1.75-0.355 2.382-0.987s0.987-1.488 0.987-2.382v-6.737c0-0.893-0.355-1.75-0.987-2.382s-1.489-0.987-2.382-0.987zM22.737 7.662c0 0.93-0.754 1.684-1.684 1.684s-1.684-0.754-1.684-1.684c0-0.93 0.754-1.684 1.684-1.684s1.684 0.754 1.684 1.684zM29.474 7.662c0 0.93-0.754 1.684-1.684 1.684s-1.684-0.754-1.684-1.684c0-0.93 0.754-1.684 1.684-1.684s1.684 0.754 1.684 1.684zM31.158 17.767h-26.947c-0.893 0-1.75 0.355-2.382 0.987s-0.987 1.488-0.987 2.382v6.737c0 0.893 0.355 1.75 0.987 2.382s1.488 0.987 2.382 0.987h26.947c0.893 0 1.75-0.355 2.382-0.987s0.987-1.488 0.987-2.382v-6.737c0-0.893-0.355-1.75-0.987-2.382s-1.489-0.987-2.382-0.987zM22.737 24.504c0 0.93-0.754 1.684-1.684 1.684s-1.684-0.754-1.684-1.684c0-0.93 0.754-1.684 1.684-1.684s1.684 0.754 1.684 1.684zM29.474 24.504c0 0.93-0.754 1.684-1.684 1.684s-1.684-0.754-1.684-1.684c0-0.93 0.754-1.684 1.684-1.684s1.684 0.754 1.684 1.684z"></path>
</svg>
