<!-- Generated by IcoMoon.io -->
<svg version="1.1" xmlns="http://www.w3.org/2000/svg" width="34" height="32" viewBox="0 0 34 32">
<title>star</title>
<path d="M32.465 11.119l-9.765-1.419-4.365-8.85c-0.119-0.242-0.315-0.438-0.558-0.558-0.608-0.3-1.346-0.050-1.65 0.558l-4.365 8.85-9.765 1.419c-0.269 0.038-0.515 0.165-0.704 0.358-0.228 0.234-0.353 0.549-0.349 0.876s0.138 0.638 0.372 0.866l7.065 6.888-1.669 9.727c-0.039 0.226-0.014 0.459 0.072 0.672s0.231 0.397 0.416 0.532c0.186 0.135 0.406 0.215 0.635 0.231s0.458-0.032 0.661-0.139l8.735-4.592 8.735 4.592c0.239 0.127 0.515 0.169 0.781 0.123 0.669-0.115 1.119-0.75 1.004-1.419l-1.669-9.727 7.065-6.888c0.192-0.188 0.319-0.435 0.358-0.704 0.104-0.673-0.365-1.296-1.038-1.396z"></path>
</svg>
