<svg width="511" height="338" fill="none" xmlns="http://www.w3.org/2000/svg"><path d="M381.649 216.659l-39.722-23.318-31.201 46.432c18.228 15.212 48.851 26.275 64.675 22.897 32.474-6.933 98.097-99.136 107.203-106.156 30.998-23.897 41.074-32.966 2.286-14.397-36.981 17.704-17.394 0-26.454 0-10.885.76-7.278 10.421-3.238 17.343l-73.549 57.199z" fill="url(#paint0_linear)"/><path d="M156.267 181.334c11.207-7.782 55.489-21.8 74.937-27.837l20.575 2.245c12.964 3.214 40.77 8.693 53.561 13.879 12.791 5.185 36.003 21.722 57.658 35.512l-5.113 17.708a50.146 50.146 0 01-32.453 33.706c-4.045 25.722-7.533 67.539-6.957 80.503l-150.486-.117-6.889-63.648-30.989 3.32-26.177-20.058c32.777-56.694 38.325-65.485 52.333-75.213z" fill="url(#paint1_linear)"/><path d="M113.216 327.588c-47.68-6.045-16.67-54.37-8.216-70.329a65.104 65.104 0 0036.164 15.041l16.431 1.459-6.728 15.522 72.639 17.006 10.191 28.271c-7.259-1.236-61.188.549-120.481-6.97z" fill="url(#paint2_linear)"/><path d="M236.275 26.623c2.347-4.243 9.077-10.184 17.224 0h-17.224z" fill="#30235B"/><ellipse cx="240.187" cy="172.006" rx="25.973" ry="18.508" fill="#CF0606"/><path d="M218.906 171.011l3.63-36.149h35.345l4.06 36.149c-1.419 4.257-8.119 12.893-20.525 12.893-15.813 0-21.497-8.636-22.51-12.893z" fill="url(#paint3_linear)"/><mask id="a" maskUnits="userSpaceOnUse" x="218" y="134" width="44" height="50"><path d="M218.906 171.011l3.63-36.149h35.345l4.068 36.222c-1.419 4.257-8.142 12.821-20.549 12.821-15.812 0-21.481-8.637-22.494-12.894z" fill="url(#paint4_linear)"/></mask><g mask="url(#a)"><path opacity=".1" d="M270.619 136.246c-31.959 39.542-49.818 7.748-59.043 2.979l6.339-26.732 37.842-4.519 14.862 28.272z" fill="#000"/></g><path d="M239.574 149.374c-38.117 0-44.672-54.715-32.895-79.741 26.498-32.387 59.622-13.495 72.871 0 3.19 20.855 6.707 79.741-39.976 79.741z" fill="url(#paint5_linear)"/><path d="M280.201 107.516l-7.468-5.501 1.155-4.096 8.53 5.625-2.217 3.972zM202.396 105.921l7.468-5.502-1.155-4.095-8.53 5.624 2.217 3.973z" fill="#111"/><path d="M209.23 72.921c27.023 17.607 56.982 7.336 68.583 0-2.443 7.704 1.018 22.513 3.053 28.954 17.584-22.898 11.835-35.263 6.763-38.584-.845-11.412-11.22-39.946-46.049-38.594-34.829 1.353-41.588 26.055-40.601 35.213-13.188 17.922-5.342 35.444 1.019 41.965 7.232-14.04 7.067-23.89 7.232-28.954z" fill="#30235B"/><g filter="url(#filter0_d)"><path d="M244.348 42.318c-40.343-1.35-49.329 25.18-50.535 40.587-.097 1.234-1.106 2.206-2.343 2.206-1.321 0-2.373-1.102-2.255-2.416 1.76-19.754 12.292-54.273 55.133-51.893 43.256 2.403 51.718 36.838 50.391 56.034-.071 1.027-.939 1.803-1.969 1.803-1.123 0-2.024-.91-2.069-2.033-.636-15.927-11.224-43.27-46.353-44.288z" fill="#FCFFFF"/></g><g filter="url(#filter1_d)"><rect x="295.546" y="94.939" width="5.476" height="21.013" rx="2.738" transform="rotate(10.054 295.546 94.94)" fill="#24C28A"/></g><g filter="url(#filter2_d)"><rect x="283.782" y="81.316" width="16.867" height="43.773" rx="8.433" transform="rotate(10.054 283.782 81.316)" fill="#FCFFFF"/></g><g filter="url(#filter3_d)"><rect width="5.476" height="21.013" rx="2.738" transform="scale(-1 1) rotate(10.054 -632.957 -1013.379)" fill="#24C28A"/></g><g filter="url(#filter4_d)"><rect width="16.867" height="43.773" rx="8.433" transform="scale(-1 1) rotate(10.054 -561.329 -1086.188)" fill="#FCFFFF"/></g><mask id="b" maskUnits="userSpaceOnUse" x="182" y="82" width="23" height="45"><rect width="16.867" height="43.773" rx="8.433" transform="scale(-1 1) rotate(10.054 -561.329 -1086.188)" fill="#fff"/></mask><g mask="url(#b)"><path fill="#E8E8E8" d="M190.305 81.316l21.6-3.847 8.331 46.781-21.6 3.847z"/></g><mask id="c" maskUnits="userSpaceOnUse" x="277" y="82" width="23" height="45"><rect x="283.782" y="81.316" width="16.867" height="43.773" rx="8.433" transform="rotate(10.054 283.782 81.316)" fill="#fff"/></mask><g mask="url(#c)"><path fill="#E8E8E8" d="M292.748 81.316l-21.6-3.846-8.331 46.78 21.6 3.847z"/></g><path opacity=".5" d="M223.149 113.907c-5.392 0-8.108-4.25-8.798-6.147-.794-1.587-1.42-5.722.459-9.007 2.389-4.176 13.618-5.34 17.552.56 3.933 5.899 0 14.594-9.213 14.594zM258.88 113.907c5.393 0 8.108-4.25 8.798-6.147.794-1.587 1.421-5.722-.458-9.007-2.389-4.176-13.619-5.34-17.552.56-3.934 5.899 0 14.594 9.212 14.594z" fill="#E6FCFF"/><path fill-rule="evenodd" clip-rule="evenodd" d="M235.147 98.01c-8.794-7.723-16.738-4.455-21.445-2.519a52.28 52.28 0 01-1.447.58l-2.947.005a1 1 0 00-.998 1.01l.022 2.477a1 1 0 001 .991h2.131c-1.544 13.251 8.228 16.797 16.043 14.408 6.968-2.129 8.833-8.154 9.206-11.934 1.49-3.303 8.024-1.777 8.283-.074l.02.134c.307 2.074 1.852 12.523 13.615 12.537 9.635.012 12.248-8.595 12.35-12.901l2.495-.022a1 1 0 00.991-1.009l-.027-3.03a1 1 0 00-1.009-.992l-2.494.022c-6.276-6.358-19.758-5.763-24.507.217-5.239-1.208-9.704-.436-11.282.1zm-11.998 15.897c-5.392 0-8.108-4.25-8.798-6.147-.793-1.587-1.42-5.722.459-9.007 2.389-4.176 13.618-5.34 17.552.56 3.933 5.899 0 14.594-9.213 14.594zm44.53-6.147c-.69 1.897-3.405 6.147-8.798 6.147-9.212 0-13.145-8.695-9.212-14.595s15.163-4.735 17.552-.559c1.879 3.285 1.252 7.42.458 9.007z" fill="#111"/><path d="M164.801 331.687c0-.555.45-1.004 1.005-1.004h154.392c.971 0 1.758.787 1.758 1.758a5.274 5.274 0 01-5.274 5.274H170.829a6.028 6.028 0 01-6.028-6.028z" fill="#B4B4B4"/><rect x="164.801" y="228.147" width="157.155" height="105.147" rx="2.947" fill="url(#paint6_linear)"/><circle cx="243.378" cy="280.721" r="11.177" fill="#FCFFFF"/><path fill-rule="evenodd" clip-rule="evenodd" d="M131.715 92.875c.2-3.408.879-6.262 1.446-7.848a26.685 26.685 0 011.848 7.888c2.436.186 5.107.736 7.888 1.85-1.586.566-4.439 1.245-7.848 1.445-.19 3.618-1.12 6.43-1.888 7.87-.935-2.617-1.362-5.308-1.473-7.843-2.535-.112-5.227-.538-7.844-1.473 1.441-.768 4.252-1.698 7.871-1.889z" fill="url(#paint7_linear)"/><path fill-rule="evenodd" clip-rule="evenodd" d="M104.828 70.449c.132-2.27.585-4.169.962-5.224a17.774 17.774 0 011.23 5.25c1.621.124 3.399.49 5.251 1.231-1.056.377-2.955.83-5.224.962-.127 2.409-.746 4.28-1.257 5.239-.623-1.742-.906-3.533-.98-5.221-1.688-.074-3.48-.358-5.222-.98.959-.511 2.831-1.13 5.24-1.257z" fill="url(#paint8_linear)"/><path fill-rule="evenodd" clip-rule="evenodd" d="M61.504 54.471c.2-3.409.88-6.262 1.446-7.848a26.663 26.663 0 011.849 7.888c2.435.186 5.106.736 7.888 1.849-1.586.566-4.44 1.246-7.849 1.445-.19 3.619-1.12 6.43-1.888 7.87-.935-2.616-1.361-5.308-1.473-7.843-2.535-.111-5.226-.538-7.843-1.472 1.44-.768 4.252-1.699 7.87-1.889z" fill="url(#paint9_linear)"/><path fill-rule="evenodd" clip-rule="evenodd" d="M65.213 132.812c.294-5.015 1.294-9.213 2.127-11.547a39.228 39.228 0 012.72 11.606 39.212 39.212 0 0111.605 2.72c-2.333.833-6.531 1.833-11.546 2.126-.28 5.324-1.65 9.461-2.78 11.58-1.374-3.85-2.002-7.81-2.165-11.54-3.73-.164-7.69-.791-11.54-2.166 2.118-1.13 6.255-2.5 11.58-2.779z" fill="url(#paint10_linear)"/><circle cx="95.682" cy="103.157" r="1.841" fill="#2F235A"/><circle cx="137.94" cy="50.36" r="1.841" fill="#FE9076"/><circle cx="45.321" cy="95.847" r="1.841" fill="#FFA400"/><circle cx="127.847" cy="131.557" r="1.841" fill="#23BB86"/><path d="M133.428 42.675c-4.163-5.718-15.89-17.931-29.494-21.04" stroke="#FE9076" stroke-width="1.603" stroke-linecap="round"/><path d="M37.551 90.911C31.398 87.424 15.673 81.145 2 83.933" stroke="#FFA400" stroke-width="1.603" stroke-linecap="round"/><path d="M121.527 136.906c-3.153 2.782-10.739 10.684-15.858 20.031" stroke="#23BB86" stroke-width="1.603" stroke-linecap="round"/><path fill-rule="evenodd" clip-rule="evenodd" d="M349.065 92.875c-.199-3.408-.879-6.262-1.445-7.848a26.657 26.657 0 00-1.849 7.888 26.652 26.652 0 00-7.888 1.85c1.586.566 4.439 1.245 7.848 1.445.19 3.618 1.12 6.43 1.889 7.87.934-2.617 1.361-5.308 1.472-7.843 2.535-.112 5.227-.538 7.844-1.473-1.44-.768-4.252-1.698-7.871-1.889z" fill="url(#paint11_linear)"/><path fill-rule="evenodd" clip-rule="evenodd" d="M375.953 70.449c-.133-2.27-.585-4.169-.962-5.224a17.746 17.746 0 00-1.231 5.25c-1.621.124-3.399.49-5.251 1.231 1.056.377 2.955.83 5.224.962.127 2.409.746 4.28 1.258 5.239.622-1.742.905-3.533.98-5.221 1.687-.074 3.479-.358 5.221-.98-.959-.511-2.831-1.13-5.239-1.257z" fill="url(#paint12_linear)"/><path fill-rule="evenodd" clip-rule="evenodd" d="M419.276 54.471c-.2-3.409-.879-6.262-1.446-7.848a26.685 26.685 0 00-1.848 7.888 26.665 26.665 0 00-7.889 1.849c1.586.566 4.44 1.246 7.849 1.445.19 3.619 1.12 6.43 1.888 7.87.935-2.616 1.361-5.308 1.473-7.843 2.535-.111 5.227-.538 7.843-1.472-1.44-.768-4.251-1.699-7.87-1.889z" fill="url(#paint13_linear)"/><path fill-rule="evenodd" clip-rule="evenodd" d="M415.567 132.812c-.294-5.015-1.293-9.213-2.127-11.547a39.244 39.244 0 00-2.72 11.606 39.214 39.214 0 00-11.605 2.72c2.333.833 6.531 1.833 11.546 2.126.28 5.324 1.649 9.461 2.779 11.58 1.375-3.85 2.003-7.81 2.166-11.54 3.73-.164 7.69-.791 11.54-2.166-2.118-1.13-6.255-2.5-11.579-2.779z" fill="url(#paint14_linear)"/><circle r="1.841" transform="matrix(-1 0 0 1 385.098 103.157)" fill="#2F235A"/><circle r="1.841" transform="matrix(-1 0 0 1 342.84 50.36)" fill="#FE9076"/><circle r="1.841" transform="matrix(-1 0 0 1 435.46 95.847)" fill="#FFA400"/><circle r="1.841" transform="matrix(-1 0 0 1 352.933 131.557)" fill="#23BB86"/><path d="M347.352 42.675c4.163-5.718 15.89-17.931 29.494-21.04" stroke="#FE9076" stroke-width="1.603" stroke-linecap="round"/><path d="M443.229 90.911c6.153-3.487 21.878-9.766 35.551-6.978" stroke="#FFA400" stroke-width="1.603" stroke-linecap="round"/><path d="M359.253 136.906c3.153 2.782 10.739 10.684 15.858 20.031" stroke="#23BB86" stroke-width="1.603" stroke-linecap="round"/><defs><linearGradient id="paint0_linear" x1="391.781" y1="81.321" x2="394.428" y2="257.189" gradientUnits="userSpaceOnUse"><stop stop-color="#FFEFE0"/><stop offset="1" stop-color="#FFBE99"/></linearGradient><linearGradient id="paint1_linear" x1="243.275" y1="123.208" x2="230.875" y2="371.546" gradientUnits="userSpaceOnUse"><stop stop-color="#FF9F81"/><stop offset="1" stop-color="#F53838"/></linearGradient><linearGradient id="paint2_linear" x1="228.21" y1="210.483" x2="109.538" y2="267.358" gradientUnits="userSpaceOnUse"><stop offset=".068" stop-color="#FFEFE0"/><stop offset="1" stop-color="#FFBE99"/></linearGradient><linearGradient id="paint3_linear" x1="239.204" y1="95.975" x2="241.284" y2="162.361" gradientUnits="userSpaceOnUse"><stop stop-color="#FFEFE0"/><stop offset="1" stop-color="#FFBE99"/></linearGradient><linearGradient id="paint4_linear" x1="239.204" y1="95.975" x2="236.29" y2="171.606" gradientUnits="userSpaceOnUse"><stop stop-color="#FFEFE0"/><stop offset="1" stop-color="#FFBE99"/></linearGradient><linearGradient id="paint5_linear" x1="242.661" y1="60.583" x2="242.661" y2="140.302" gradientUnits="userSpaceOnUse"><stop stop-color="#FFEFE0"/><stop offset="1" stop-color="#FFBE99"/></linearGradient><linearGradient id="paint6_linear" x1="275.829" y1="149.235" x2="217.724" y2="357.729" gradientUnits="userSpaceOnUse"><stop offset=".017" stop-color="#fff"/><stop offset="1" stop-color="#D7D7D7"/></linearGradient><linearGradient id="paint7_linear" x1="133.371" y1="87.055" x2="133.371" y2="104.945" gradientUnits="userSpaceOnUse"><stop stop-color="#FFE89E"/><stop offset="1" stop-color="#FFBF1A"/></linearGradient><linearGradient id="paint8_linear" x1="105.93" y1="66.575" x2="105.93" y2="78.482" gradientUnits="userSpaceOnUse"><stop stop-color="#FFE89E"/><stop offset="1" stop-color="#FFBF1A"/></linearGradient><linearGradient id="paint9_linear" x1="63.16" y1="48.651" x2="63.16" y2="66.54" gradientUnits="userSpaceOnUse"><stop stop-color="#FFE89E"/><stop offset="1" stop-color="#FFBF1A"/></linearGradient><linearGradient id="paint10_linear" x1="67.649" y1="124.249" x2="67.649" y2="150.569" gradientUnits="userSpaceOnUse"><stop stop-color="#FFE89E"/><stop offset="1" stop-color="#FFBF1A"/></linearGradient><linearGradient id="paint11_linear" x1="347.409" y1="87.055" x2="347.409" y2="104.945" gradientUnits="userSpaceOnUse"><stop stop-color="#FFE89E"/><stop offset="1" stop-color="#FFBF1A"/></linearGradient><linearGradient id="paint12_linear" x1="374.85" y1="66.575" x2="374.85" y2="78.482" gradientUnits="userSpaceOnUse"><stop stop-color="#FFE89E"/><stop offset="1" stop-color="#FFBF1A"/></linearGradient><linearGradient id="paint13_linear" x1="417.62" y1="48.651" x2="417.62" y2="66.54" gradientUnits="userSpaceOnUse"><stop stop-color="#FFE89E"/><stop offset="1" stop-color="#FFBF1A"/></linearGradient><linearGradient id="paint14_linear" x1="413.131" y1="124.249" x2="413.131" y2="150.569" gradientUnits="userSpaceOnUse"><stop stop-color="#FFE89E"/><stop offset="1" stop-color="#FFBF1A"/></linearGradient><filter id="filter0_d" x="155.206" y=".685" width="173.661" height="125.955" filterUnits="userSpaceOnUse" color-interpolation-filters="sRGB"><feFlood flood-opacity="0" result="BackgroundImageFix"/><feColorMatrix in="SourceAlpha" values="0 0 0 0 0 0 0 0 0 0 0 0 0 0 0 0 0 0 127 0"/><feOffset dy="4"/><feGaussianBlur stdDeviation="17"/><feColorMatrix values="0 0 0 0 0.0386285 0 0 0 0 0.0648437 0 0 0 0 0.104167 0 0 0 0.13 0"/><feBlend in2="BackgroundImageFix" result="effect1_dropShadow"/><feBlend in="SourceGraphic" in2="effect1_dropShadow" result="shape"/></filter><filter id="filter1_d" x="258.313" y="65.374" width="76.189" height="88.775" filterUnits="userSpaceOnUse" color-interpolation-filters="sRGB"><feFlood flood-opacity="0" result="BackgroundImageFix"/><feColorMatrix in="SourceAlpha" values="0 0 0 0 0 0 0 0 0 0 0 0 0 0 0 0 0 0 127 0"/><feOffset dy="4"/><feGaussianBlur stdDeviation="17"/><feColorMatrix values="0 0 0 0 0.0386285 0 0 0 0 0.0648437 0 0 0 0 0.104167 0 0 0 0.13 0"/><feBlend in2="BackgroundImageFix" result="effect1_dropShadow"/><feBlend in="SourceGraphic" in2="effect1_dropShadow" result="shape"/></filter><filter id="filter2_d" x="243.482" y="52.657" width="89.567" height="111.363" filterUnits="userSpaceOnUse" color-interpolation-filters="sRGB"><feFlood flood-opacity="0" result="BackgroundImageFix"/><feColorMatrix in="SourceAlpha" values="0 0 0 0 0 0 0 0 0 0 0 0 0 0 0 0 0 0 127 0"/><feOffset dy="4"/><feGaussianBlur stdDeviation="17"/><feColorMatrix values="0 0 0 0 0.0386285 0 0 0 0 0.0648437 0 0 0 0 0.104167 0 0 0 0.13 0"/><feBlend in2="BackgroundImageFix" result="effect1_dropShadow"/><feBlend in="SourceGraphic" in2="effect1_dropShadow" result="shape"/></filter><filter id="filter3_d" x="147.68" y="65.374" width="76.189" height="88.775" filterUnits="userSpaceOnUse" color-interpolation-filters="sRGB"><feFlood flood-opacity="0" result="BackgroundImageFix"/><feColorMatrix in="SourceAlpha" values="0 0 0 0 0 0 0 0 0 0 0 0 0 0 0 0 0 0 127 0"/><feOffset dy="4"/><feGaussianBlur stdDeviation="17"/><feColorMatrix values="0 0 0 0 0.0386285 0 0 0 0 0.0648437 0 0 0 0 0.104167 0 0 0 0.13 0"/><feBlend in2="BackgroundImageFix" result="effect1_dropShadow"/><feBlend in="SourceGraphic" in2="effect1_dropShadow" result="shape"/></filter><filter id="filter4_d" x="148.981" y="52.657" width="89.567" height="111.363" filterUnits="userSpaceOnUse" color-interpolation-filters="sRGB"><feFlood flood-opacity="0" result="BackgroundImageFix"/><feColorMatrix in="SourceAlpha" values="0 0 0 0 0 0 0 0 0 0 0 0 0 0 0 0 0 0 127 0"/><feOffset dy="4"/><feGaussianBlur stdDeviation="17"/><feColorMatrix values="0 0 0 0 0.0386285 0 0 0 0 0.0648437 0 0 0 0 0.104167 0 0 0 0.13 0"/><feBlend in2="BackgroundImageFix" result="effect1_dropShadow"/><feBlend in="SourceGraphic" in2="effect1_dropShadow" result="shape"/></filter></defs></svg>