<!-- Generated by IcoMoon.io -->
<svg version="1.1" xmlns="http://www.w3.org/2000/svg" width="32" height="32" viewBox="0 0 32 32">
<title>tw</title>
<path d="M15.812 0c-8.733 0-15.812 7.079-15.812 15.812s7.079 15.812 15.812 15.812c8.733 0 15.812-7.079 15.812-15.812s-7.079-15.812-15.812-15.812zM22.243 12.952c0.007 0.135 0.008 0.27 0.008 0.402 0 4.118-3.131 8.863-8.86 8.863-1.693 0.003-3.35-0.483-4.773-1.4 0.242 0.030 0.491 0.041 0.743 0.041 1.459 0 2.802-0.496 3.867-1.333-0.649-0.013-1.279-0.228-1.8-0.615s-0.909-0.928-1.109-1.546c0.466 0.089 0.947 0.070 1.405-0.054-0.705-0.142-1.339-0.524-1.794-1.081s-0.704-1.253-0.704-1.973v-0.038c0.42 0.232 0.901 0.374 1.411 0.39-0.661-0.44-1.129-1.116-1.308-1.889s-0.056-1.586 0.344-2.272c0.782 0.962 1.758 1.749 2.864 2.31s2.317 0.883 3.555 0.947c-0.157-0.668-0.090-1.37 0.193-1.995s0.764-1.141 1.369-1.465c0.605-0.324 1.301-0.439 1.978-0.327s1.299 0.445 1.767 0.946c0.697-0.138 1.365-0.394 1.976-0.756-0.232 0.722-0.719 1.335-1.369 1.725 0.617-0.074 1.22-0.24 1.789-0.493-0.418 0.626-0.944 1.172-1.553 1.613z"></path>
</svg>
