<!-- Generated by IcoMoon.io -->
<svg version="1.1" xmlns="http://www.w3.org/2000/svg" width="29" height="32" viewBox="0 0 29 32">
<title>user</title>
<path d="M14.316 12.378c1.608 0 3.15-0.639 4.287-1.776s1.776-2.679 1.776-4.287c0-1.608-0.639-3.15-1.776-4.287s-2.679-1.776-4.287-1.776c-1.608 0-3.15 0.639-4.287 1.776s-1.776 2.679-1.776 4.287c0 1.608 0.639 3.15 1.776 4.287s2.679 1.776 4.287 1.776zM5.724 30.567c-3.068 0-5.653-2.579-4.479-5.414 0.711-1.716 1.753-3.276 3.067-4.59s2.873-2.356 4.59-3.067c1.716-0.711 3.556-1.077 5.414-1.077s3.697 0.366 5.414 1.077c1.717 0.711 3.276 1.753 4.59 3.067s2.356 2.873 3.067 4.59c1.174 2.835-1.41 5.414-4.479 5.414h-17.184z"></path>
</svg>
